<svg version="1.1" xmlns="http://www.w3.org/2000/svg" xmlns:xlink="http://www.w3.org/1999/xlink" width="128" height="128" viewBox="0,0,128,128"><g transform="translate(-176,-116)"><g data-paper-data="{&quot;isPaintingLayer&quot;:true}" fill-rule="nonzero" stroke="none" stroke-width="1" stroke-linecap="butt" stroke-linejoin="miter" stroke-miterlimit="10" stroke-dasharray="" stroke-dashoffset="0" style="mix-blend-mode: normal"><path d="M176,244v-128h128v128z" fill="#0b102a"/><path d="M184,228v-8h112v8z" fill="#111827"/><path d="M184,232.24157v-4h112v4z" fill="#1f2937"/><g fill="#fbbf24"><path d="M179.09495,170.13121v-6.21206h27.95426v6.21206z"/><path d="M200.83715,179.4493v-9.31809h6.21206v9.31809z"/><path d="M179.09495,185.66136v-6.21206h27.95426v6.21206z"/><path d="M179.09495,194.97945v-9.31808h6.21206v9.31808z"/><path d="M179.09495,201.19151v-6.21206h27.95426v6.21206z"/></g><g fill="#22d3ee"><path d="M209.8634,169.59071v-6.21206h27.95427v6.21206z"/><path d="M209.8634,194.43895v-24.84823h6.21206v24.84823z"/><path d="M231.60561,194.43895v-24.84823h6.21206v24.84823z"/><path d="M209.8634,200.65101v-6.21206h27.95427v6.21206z"/></g><g fill="#f472b6"><path d="M240.17046,169.77088v-6.21206h27.95426v6.21206z"/><path d="M261.91266,179.08897v-9.31809h6.21206v9.31809z"/><path d="M240.17046,185.30103v-6.21206h27.95426v6.21206z"/><path d="M240.17046,194.61911v-9.31808h6.21206v9.31808z"/><path d="M240.17046,200.83117v-6.21206h27.95426v6.21206z"/></g><g fill="#a855f7"><path d="M270.54771,185.2141v-6.21121h27.95047v6.21121z"/><path d="M270.54771,194.53092v-31.65451h6.21121v31.65451z"/><path d="M270.54771,200.74214v-6.21121h27.95047v6.21121z"/><path d="M292.28696,194.53092v-9.31682h6.21121v9.31682z"/><path d="M270.64672,169.10027v-6.21121h27.95047v6.21121z"/></g></g></g></svg>